<mxfile host="Electron" modified="2024-01-31T17:38:30.528Z" agent="Mozilla/5.0 (Windows NT 10.0; Win64; x64) AppleWebKit/537.36 (KHTML, like Gecko) draw.io/23.0.2 Chrome/120.0.6099.109 Electron/28.1.0 Safari/537.36" etag="WIsQTitLg72HxFDYI2dp" version="23.0.2" type="device">
  <diagram name="Page-1" id="X75OGaa5OfOXW6teG9SR">
    <mxGraphModel dx="922" dy="532" grid="1" gridSize="10" guides="1" tooltips="1" connect="1" arrows="1" fold="1" page="1" pageScale="1" pageWidth="827" pageHeight="1169" math="0" shadow="0">
      <root>
        <mxCell id="0" />
        <mxCell id="1" parent="0" />
        <mxCell id="e51l-U1AH-l_leqLZLDB-1" value="&lt;i style=&quot;font-weight: normal; font-size: 10px;&quot;&gt;&amp;lt;&amp;lt;abstract&amp;gt;&amp;gt;&lt;br style=&quot;font-size: 10px;&quot;&gt;InformationRessource&lt;/i&gt;" style="swimlane;fontStyle=1;align=center;verticalAlign=top;childLayout=stackLayout;horizontal=1;startSize=40;horizontalStack=0;resizeParent=1;resizeParentMax=0;resizeLast=0;collapsible=1;marginBottom=0;whiteSpace=wrap;html=1;fillColor=#bac8d3;strokeColor=#23445d;glass=1;rounded=0;shadow=0;swimlaneLine=1;fontSize=10;fontFamily=Georgia;" parent="1" vertex="1">
          <mxGeometry x="60" y="20" width="110" height="160" as="geometry" />
        </mxCell>
        <mxCell id="e51l-U1AH-l_leqLZLDB-2" value="&lt;font style=&quot;font-size: 10px;&quot;&gt;+ id : int&lt;br style=&quot;font-size: 10px;&quot;&gt;+ content&amp;nbsp; : Any&lt;/font&gt;" style="text;strokeColor=none;fillColor=none;align=left;verticalAlign=top;spacingLeft=4;spacingRight=4;overflow=hidden;rotatable=0;points=[[0,0.5],[1,0.5]];portConstraint=eastwest;whiteSpace=wrap;html=1;fontSize=10;fontFamily=Georgia;" parent="e51l-U1AH-l_leqLZLDB-1" vertex="1">
          <mxGeometry y="40" width="110" height="30" as="geometry" />
        </mxCell>
        <mxCell id="e51l-U1AH-l_leqLZLDB-3" value="" style="line;strokeWidth=1;fillColor=none;align=left;verticalAlign=middle;spacingTop=-1;spacingLeft=3;spacingRight=3;rotatable=0;labelPosition=right;points=[];portConstraint=eastwest;strokeColor=inherit;fontSize=10;fontFamily=Georgia;" parent="e51l-U1AH-l_leqLZLDB-1" vertex="1">
          <mxGeometry y="70" width="110" height="10" as="geometry" />
        </mxCell>
        <mxCell id="e51l-U1AH-l_leqLZLDB-4" value="+ __init__()&amp;nbsp;&lt;br style=&quot;font-size: 10px;&quot;&gt;+ __len__() : int&lt;br style=&quot;font-size: 10px;&quot;&gt;+ __str__() : str&lt;br style=&quot;font-size: 10px;&quot;&gt;+ __repr__() : str&lt;br style=&quot;font-size: 10px;&quot;&gt;+ get_id() : int&lt;br style=&quot;font-size: 10px;&quot;&gt;+ get_content : Any" style="text;strokeColor=none;fillColor=none;align=left;verticalAlign=top;spacingLeft=4;spacingRight=4;overflow=hidden;rotatable=0;points=[[0,0.5],[1,0.5]];portConstraint=eastwest;whiteSpace=wrap;html=1;fontSize=10;fontFamily=Georgia;" parent="e51l-U1AH-l_leqLZLDB-1" vertex="1">
          <mxGeometry y="80" width="110" height="80" as="geometry" />
        </mxCell>
        <mxCell id="e51l-U1AH-l_leqLZLDB-7" value="TextDocument" style="swimlane;fontStyle=1;align=center;verticalAlign=top;childLayout=stackLayout;horizontal=1;startSize=26;horizontalStack=0;resizeParent=1;resizeParentMax=0;resizeLast=0;collapsible=1;marginBottom=0;whiteSpace=wrap;html=1;fillColor=#b0e3e6;strokeColor=#0e8088;rounded=1;fontSize=10;fontFamily=Georgia;" parent="1" vertex="1">
          <mxGeometry y="300" width="120" height="120" as="geometry" />
        </mxCell>
        <mxCell id="e51l-U1AH-l_leqLZLDB-8" value="+ content : list[str]" style="text;strokeColor=none;fillColor=none;align=left;verticalAlign=top;spacingLeft=4;spacingRight=4;overflow=hidden;rotatable=0;points=[[0,0.5],[1,0.5]];portConstraint=eastwest;whiteSpace=wrap;html=1;fontSize=10;fontFamily=Georgia;" parent="e51l-U1AH-l_leqLZLDB-7" vertex="1">
          <mxGeometry y="26" width="120" height="24" as="geometry" />
        </mxCell>
        <mxCell id="e51l-U1AH-l_leqLZLDB-9" value="" style="line;strokeWidth=1;fillColor=none;align=left;verticalAlign=middle;spacingTop=-1;spacingLeft=3;spacingRight=3;rotatable=0;labelPosition=right;points=[];portConstraint=eastwest;strokeColor=inherit;fontSize=10;fontFamily=Georgia;" parent="e51l-U1AH-l_leqLZLDB-7" vertex="1">
          <mxGeometry y="50" width="120" height="11" as="geometry" />
        </mxCell>
        <mxCell id="e51l-U1AH-l_leqLZLDB-10" value="+ __init__(int, list[str])&lt;br style=&quot;font-size: 10px;&quot;&gt;+ get_next_token() : str&lt;br style=&quot;font-size: 10px;&quot;&gt;+ compute_avtl() : float" style="text;strokeColor=none;fillColor=none;align=left;verticalAlign=top;spacingLeft=4;spacingRight=4;overflow=hidden;rotatable=0;points=[[0,0.5],[1,0.5]];portConstraint=eastwest;whiteSpace=wrap;html=1;fontSize=10;fontFamily=Georgia;" parent="e51l-U1AH-l_leqLZLDB-7" vertex="1">
          <mxGeometry y="61" width="120" height="59" as="geometry" />
        </mxCell>
        <mxCell id="e51l-U1AH-l_leqLZLDB-15" value="XMLDocument" style="swimlane;fontStyle=1;align=center;verticalAlign=top;childLayout=stackLayout;horizontal=1;startSize=26;horizontalStack=0;resizeParent=1;resizeParentMax=0;resizeLast=0;collapsible=1;marginBottom=0;whiteSpace=wrap;html=1;fillColor=#d0cee2;strokeColor=#56517e;rounded=1;fontSize=10;fontFamily=Georgia;" parent="1" vertex="1">
          <mxGeometry x="140" y="738" width="120" height="200" as="geometry" />
        </mxCell>
        <mxCell id="e51l-U1AH-l_leqLZLDB-16" value="&lt;u style=&quot;font-size: 10px;&quot;&gt;+ granularity : list[str]&lt;br style=&quot;border-color: var(--border-color); font-size: 10px;&quot;&gt;+ granularity_weights : dict[str, float]&lt;/u&gt;&lt;br style=&quot;font-size: 10px;&quot;&gt;+ content : XMLElement" style="text;strokeColor=none;fillColor=none;align=left;verticalAlign=top;spacingLeft=4;spacingRight=4;overflow=hidden;rotatable=0;points=[[0,0.5],[1,0.5]];portConstraint=eastwest;whiteSpace=wrap;html=1;fontSize=10;fontFamily=Georgia;" parent="e51l-U1AH-l_leqLZLDB-15" vertex="1">
          <mxGeometry y="26" width="120" height="64" as="geometry" />
        </mxCell>
        <mxCell id="e51l-U1AH-l_leqLZLDB-17" value="" style="line;strokeWidth=1;fillColor=none;align=left;verticalAlign=middle;spacingTop=-1;spacingLeft=3;spacingRight=3;rotatable=0;labelPosition=right;points=[];portConstraint=eastwest;strokeColor=inherit;fontSize=10;fontFamily=Georgia;" parent="e51l-U1AH-l_leqLZLDB-15" vertex="1">
          <mxGeometry y="90" width="120" height="11" as="geometry" />
        </mxCell>
        <mxCell id="e51l-U1AH-l_leqLZLDB-18" value="&lt;u style=&quot;font-size: 10px;&quot;&gt;+ set_granularity(list[str])&lt;/u&gt;&lt;br style=&quot;font-size: 10px;&quot;&gt;+ __init__(int, dict)&lt;br style=&quot;font-size: 10px;&quot;&gt;+ __len__() : int&lt;br style=&quot;font-size: 10px;&quot;&gt;+ get_text_content() : list[str]&lt;br style=&quot;font-size: 10px;&quot;&gt;+ compute_avtl() : float&lt;br style=&quot;font-size: 10px;&quot;&gt;+ del_tokens_list() : None" style="text;strokeColor=none;fillColor=none;align=left;verticalAlign=top;spacingLeft=4;spacingRight=4;overflow=hidden;rotatable=0;points=[[0,0.5],[1,0.5]];portConstraint=eastwest;whiteSpace=wrap;html=1;fontSize=10;fontFamily=Georgia;" parent="e51l-U1AH-l_leqLZLDB-15" vertex="1">
          <mxGeometry y="101" width="120" height="99" as="geometry" />
        </mxCell>
        <mxCell id="e51l-U1AH-l_leqLZLDB-19" value="&lt;i style=&quot;font-weight: normal; font-size: 10px;&quot;&gt;&amp;lt;&amp;lt;abstract&amp;gt;&amp;gt;&lt;br style=&quot;font-size: 10px;&quot;&gt;CollectionOfRessources&lt;/i&gt;" style="swimlane;fontStyle=1;align=center;verticalAlign=top;childLayout=stackLayout;horizontal=1;startSize=40;horizontalStack=0;resizeParent=1;resizeParentMax=0;resizeLast=0;collapsible=1;marginBottom=0;whiteSpace=wrap;html=1;fillColor=#bac8d3;strokeColor=#23445d;glass=1;fontSize=10;fontFamily=Georgia;" parent="1" vertex="1">
          <mxGeometry x="240" y="20" width="250" height="250" as="geometry" />
        </mxCell>
        <mxCell id="e51l-U1AH-l_leqLZLDB-20" value="+ id : str&lt;br style=&quot;font-size: 10px;&quot;&gt;+ path : str&lt;br style=&quot;font-size: 10px;&quot;&gt;+ collection : dict(InformationRessource)&lt;br style=&quot;font-size: 10px;&quot;&gt;+ use_parrallel_computing : bool&lt;br style=&quot;font-size: 10px;&quot;&gt;+ Timer : Timer&lt;br style=&quot;font-size: 10px;&quot;&gt;+ information_retriever :&amp;nbsp;WeightingFunction" style="text;strokeColor=none;fillColor=none;align=left;verticalAlign=top;spacingLeft=4;spacingRight=4;overflow=hidden;rotatable=0;points=[[0,0.5],[1,0.5]];portConstraint=eastwest;whiteSpace=wrap;html=1;fontSize=10;fontFamily=Georgia;" parent="e51l-U1AH-l_leqLZLDB-19" vertex="1">
          <mxGeometry y="40" width="250" height="90" as="geometry" />
        </mxCell>
        <mxCell id="e51l-U1AH-l_leqLZLDB-21" value="" style="line;strokeWidth=1;fillColor=none;align=left;verticalAlign=middle;spacingTop=-1;spacingLeft=3;spacingRight=3;rotatable=0;labelPosition=right;points=[];portConstraint=eastwest;strokeColor=inherit;fontSize=10;fontFamily=Georgia;" parent="e51l-U1AH-l_leqLZLDB-19" vertex="1">
          <mxGeometry y="130" width="250" height="8" as="geometry" />
        </mxCell>
        <mxCell id="e51l-U1AH-l_leqLZLDB-22" value="+ __init__(int, dict(InformationRessource))&lt;br style=&quot;font-size: 10px;&quot;&gt;+ __len__() : int&lt;br style=&quot;font-size: 10px;&quot;&gt;+ set_ranking_function(WeightingFunction) : None&lt;br style=&quot;font-size: 10px;&quot;&gt;&lt;i style=&quot;font-size: 10px;&quot;&gt;+ load() : str&lt;br style=&quot;font-size: 10px;&quot;&gt;+ preprocess() : None&lt;br style=&quot;font-size: 10px;&quot;&gt;+ index() : None&lt;br style=&quot;font-size: 10px;&quot;&gt;+ compute_RSV() : dict(str, float)&lt;br style=&quot;font-size: 10px;&quot;&gt;+ compute_stats(): None&lt;/i&gt;" style="text;strokeColor=none;fillColor=none;align=left;verticalAlign=top;spacingLeft=4;spacingRight=4;overflow=hidden;rotatable=0;points=[[0,0.5],[1,0.5]];portConstraint=eastwest;whiteSpace=wrap;html=1;fontSize=10;fontFamily=Georgia;" parent="e51l-U1AH-l_leqLZLDB-19" vertex="1">
          <mxGeometry y="138" width="250" height="112" as="geometry" />
        </mxCell>
        <mxCell id="e51l-U1AH-l_leqLZLDB-25" value="" style="endArrow=diamondThin;endFill=1;endSize=11;html=1;rounded=0;exitX=0.998;exitY=0.62;exitDx=0;exitDy=0;entryX=-0.002;entryY=0.226;entryDx=0;entryDy=0;fontSize=9;fontFamily=Georgia;exitPerimeter=0;entryPerimeter=0;" parent="1" source="e51l-U1AH-l_leqLZLDB-2" target="e51l-U1AH-l_leqLZLDB-20" edge="1">
          <mxGeometry width="160" relative="1" as="geometry">
            <mxPoint x="310" y="169.5" as="sourcePoint" />
            <mxPoint x="470" y="169.5" as="targetPoint" />
            <Array as="points" />
          </mxGeometry>
        </mxCell>
        <mxCell id="e51l-U1AH-l_leqLZLDB-30" value="TextCollection" style="swimlane;fontStyle=1;align=center;verticalAlign=top;childLayout=stackLayout;horizontal=1;startSize=26;horizontalStack=0;resizeParent=1;resizeParentMax=0;resizeLast=0;collapsible=1;marginBottom=0;whiteSpace=wrap;html=1;fillColor=#b0e3e6;strokeColor=#0e8088;rounded=1;fontSize=10;fontFamily=Georgia;" parent="1" vertex="1">
          <mxGeometry x="240" y="300" width="250" height="390" as="geometry" />
        </mxCell>
        <mxCell id="e51l-U1AH-l_leqLZLDB-31" value="+ documents : list(Document)&lt;br style=&quot;font-size: 10px;&quot;&gt;+ terms_frequency : dict(str, int)&lt;br style=&quot;font-size: 10px;&quot;&gt;+ vocabulary_size : int&lt;br style=&quot;font-size: 10px;&quot;&gt;+ path : str&lt;br style=&quot;font-size: 10px;&quot;&gt;+ Timer : Timer&lt;br style=&quot;font-size: 10px;&quot;&gt;+ preprocessor : TextPreprocessor&lt;br style=&quot;font-size: 10px;&quot;&gt;+ indexer : TextIndexer&lt;br style=&quot;font-size: 10px;&quot;&gt;+ information_retriever : WeightingFunction&lt;br style=&quot;font-size: 10px;&quot;&gt;+ use_parallel_computing : bool" style="text;strokeColor=none;fillColor=none;align=left;verticalAlign=top;spacingLeft=4;spacingRight=4;overflow=hidden;rotatable=0;points=[[0,0.5],[1,0.5]];portConstraint=eastwest;whiteSpace=wrap;html=1;fontSize=10;fontFamily=Georgia;" parent="e51l-U1AH-l_leqLZLDB-30" vertex="1">
          <mxGeometry y="26" width="250" height="124" as="geometry" />
        </mxCell>
        <mxCell id="e51l-U1AH-l_leqLZLDB-32" value="" style="line;strokeWidth=1;fillColor=none;align=left;verticalAlign=middle;spacingTop=-1;spacingLeft=3;spacingRight=3;rotatable=0;labelPosition=right;points=[];portConstraint=eastwest;strokeColor=inherit;fontSize=10;fontFamily=Georgia;" parent="e51l-U1AH-l_leqLZLDB-30" vertex="1">
          <mxGeometry y="150" width="250" height="8" as="geometry" />
        </mxCell>
        <mxCell id="e51l-U1AH-l_leqLZLDB-33" value="+ __init__(int, dict(InformationRessource))&lt;br style=&quot;border-color: var(--border-color); font-size: 10px;&quot;&gt;+ __str_() : str&lt;br style=&quot;font-size: 10px;&quot;&gt;+ get_avdl() : float&lt;br style=&quot;font-size: 10px;&quot;&gt;+ get avtl() : float&lt;br style=&quot;font-size: 10px;&quot;&gt;+ get_vocabulary_size() : int&lt;br style=&quot;font-size: 10px;&quot;&gt;+ get_terms_collection_frequency() : float&lt;br style=&quot;font-size: 10px;&quot;&gt;+ load() : str&lt;br style=&quot;border-color: var(--border-color); font-size: 10px;&quot;&gt;+ preprocess() : None&lt;br style=&quot;border-color: var(--border-color); font-size: 10px;&quot;&gt;+ index() : None&lt;br style=&quot;border-color: var(--border-color); font-size: 10px;&quot;&gt;+ compute_RSV() : dict(str, float)&lt;br style=&quot;border-color: var(--border-color); font-size: 10px;&quot;&gt;+ compute_stats(): None&lt;br style=&quot;font-size: 10px;&quot;&gt;+ plot_stats() : None&lt;br style=&quot;font-size: 10px;&quot;&gt;- _compute_avdl() : float&lt;br style=&quot;font-size: 10px;&quot;&gt;- _compute_avtl() : float&lt;br style=&quot;font-size: 10px;&quot;&gt;- _compute_terms_collection_frequency() : list(float)&lt;br style=&quot;font-size: 10px;&quot;&gt;- __reduce__()&amp;nbsp; : tuple(str, tuple, dict)&lt;br style=&quot;font-size: 10px;&quot;&gt;+ serialize(str)&amp;nbsp; : bool&lt;br style=&quot;font-size: 10px;&quot;&gt;&lt;u style=&quot;font-size: 10px;&quot;&gt;+ deserialize(str) : TextCollection&lt;/u&gt;" style="text;strokeColor=none;fillColor=none;align=left;verticalAlign=top;spacingLeft=4;spacingRight=4;overflow=hidden;rotatable=0;points=[[0,0.5],[1,0.5]];portConstraint=eastwest;whiteSpace=wrap;html=1;fontSize=10;fontFamily=Georgia;" parent="e51l-U1AH-l_leqLZLDB-30" vertex="1">
          <mxGeometry y="158" width="250" height="232" as="geometry" />
        </mxCell>
        <mxCell id="e51l-U1AH-l_leqLZLDB-38" value="XMLCollection" style="swimlane;fontStyle=1;align=center;verticalAlign=top;childLayout=stackLayout;horizontal=1;startSize=26;horizontalStack=0;resizeParent=1;resizeParentMax=0;resizeLast=0;collapsible=1;marginBottom=0;whiteSpace=wrap;html=1;fillColor=#d0cee2;strokeColor=#56517e;rounded=1;fontSize=10;fontFamily=Georgia;" parent="1" vertex="1">
          <mxGeometry x="300" y="738" width="250" height="280" as="geometry" />
        </mxCell>
        <mxCell id="e51l-U1AH-l_leqLZLDB-39" value="+ collection : list(XMLDocument)&lt;br style=&quot;font-size: 10px;&quot;&gt;+ terms_frequency : dict(str, int)&lt;br style=&quot;font-size: 10px;&quot;&gt;+ vocabulary_size : int&lt;br style=&quot;font-size: 10px;&quot;&gt;+ preprocessor : XMLPreprocessor&lt;br style=&quot;font-size: 10px;&quot;&gt;+ indexer : XMLIndexer&lt;br style=&quot;font-size: 10px;&quot;&gt;+ information_retriever : WeightingFunction" style="text;strokeColor=none;fillColor=none;align=left;verticalAlign=top;spacingLeft=4;spacingRight=4;overflow=hidden;rotatable=0;points=[[0,0.5],[1,0.5]];portConstraint=eastwest;whiteSpace=wrap;html=1;fontSize=10;fontFamily=Georgia;" parent="e51l-U1AH-l_leqLZLDB-38" vertex="1">
          <mxGeometry y="26" width="250" height="94" as="geometry" />
        </mxCell>
        <mxCell id="e51l-U1AH-l_leqLZLDB-40" value="" style="line;strokeWidth=1;fillColor=none;align=left;verticalAlign=middle;spacingTop=-1;spacingLeft=3;spacingRight=3;rotatable=0;labelPosition=right;points=[];portConstraint=eastwest;strokeColor=inherit;fontSize=10;fontFamily=Georgia;" parent="e51l-U1AH-l_leqLZLDB-38" vertex="1">
          <mxGeometry y="120" width="250" height="8" as="geometry" />
        </mxCell>
        <mxCell id="e51l-U1AH-l_leqLZLDB-41" value="+ load() : list(tuple(str, minidom.Document))&lt;br style=&quot;font-size: 10px;&quot;&gt;+ preprocess(list(tuple(str, minidom.Document))) : None&lt;br style=&quot;font-size: 10px;&quot;&gt;+ index() : None&lt;br style=&quot;font-size: 10px;&quot;&gt;+ compute_stats : dict[int]&lt;br style=&quot;font-size: 10px;&quot;&gt;- _compute_avdl() : float&lt;br style=&quot;font-size: 10px;&quot;&gt;- _compute_avtl() : float&lt;br style=&quot;font-size: 10px;&quot;&gt;- _compute_terms_collection_frequency() : list[float]&lt;br style=&quot;font-size: 10px;&quot;&gt;- compute_nb_distinct_terms : None&lt;br style=&quot;font-size: 10px;&quot;&gt;+ compute_RSV(str) : dict(int)&lt;br style=&quot;font-size: 10px;&quot;&gt;+ serialize(str) : bool&lt;br style=&quot;font-size: 10px;&quot;&gt;+&lt;u style=&quot;font-size: 10px;&quot;&gt; deserialize(str) : XMLCollection&lt;/u&gt;" style="text;strokeColor=none;fillColor=none;align=left;verticalAlign=top;spacingLeft=4;spacingRight=4;overflow=hidden;rotatable=0;points=[[0,0.5],[1,0.5]];portConstraint=eastwest;whiteSpace=wrap;html=1;fontSize=10;fontFamily=Georgia;" parent="e51l-U1AH-l_leqLZLDB-38" vertex="1">
          <mxGeometry y="128" width="250" height="152" as="geometry" />
        </mxCell>
        <mxCell id="e51l-U1AH-l_leqLZLDB-43" value="&lt;i style=&quot;font-weight: normal; font-size: 10px;&quot;&gt;&amp;lt;&amp;lt;abstract&amp;gt;&amp;gt;&lt;br style=&quot;font-size: 10px;&quot;&gt;Preprocessor&lt;/i&gt;" style="swimlane;fontStyle=1;align=center;verticalAlign=top;childLayout=stackLayout;horizontal=1;startSize=40;horizontalStack=0;resizeParent=1;resizeParentMax=0;resizeLast=0;collapsible=1;marginBottom=0;whiteSpace=wrap;html=1;fillColor=#bac8d3;strokeColor=#23445d;glass=1;fontSize=10;fontFamily=Georgia;" parent="1" vertex="1">
          <mxGeometry x="590" y="98" width="180" height="164" as="geometry" />
        </mxCell>
        <mxCell id="e51l-U1AH-l_leqLZLDB-45" value="" style="line;strokeWidth=1;fillColor=none;align=left;verticalAlign=middle;spacingTop=-1;spacingLeft=3;spacingRight=3;rotatable=0;labelPosition=right;points=[];portConstraint=eastwest;strokeColor=inherit;fontSize=10;fontFamily=Georgia;" parent="e51l-U1AH-l_leqLZLDB-43" vertex="1">
          <mxGeometry y="40" width="180" height="8" as="geometry" />
        </mxCell>
        <mxCell id="e51l-U1AH-l_leqLZLDB-46" value="+ load_data() : None&lt;br style=&quot;font-size: 10px;&quot;&gt;+ format_normalization() : None&lt;br style=&quot;font-size: 10px;&quot;&gt;+ clean_data() : None&lt;br style=&quot;font-size: 10px;&quot;&gt;+normalization() : None&lt;br style=&quot;font-size: 10px;&quot;&gt;+ feature_reduction() : None&lt;br style=&quot;font-size: 10px;&quot;&gt;+ sampling() : InformationRessource&lt;br style=&quot;font-size: 10px;&quot;&gt;+ label_data() : Labels[]&amp;nbsp;&lt;br style=&quot;font-size: 10px;&quot;&gt;+ save_preprocess_data() : bool&lt;br style=&quot;font-size: 10px;&quot;&gt;" style="text;strokeColor=none;fillColor=none;align=left;verticalAlign=top;spacingLeft=4;spacingRight=4;overflow=hidden;rotatable=0;points=[[0,0.5],[1,0.5]];portConstraint=eastwest;whiteSpace=wrap;html=1;fontSize=10;fontFamily=Georgia;" parent="e51l-U1AH-l_leqLZLDB-43" vertex="1">
          <mxGeometry y="48" width="180" height="116" as="geometry" />
        </mxCell>
        <mxCell id="e51l-U1AH-l_leqLZLDB-47" value="TextPreprocessor" style="swimlane;fontStyle=1;align=center;verticalAlign=top;childLayout=stackLayout;horizontal=1;startSize=26;horizontalStack=0;resizeParent=1;resizeParentMax=0;resizeLast=0;collapsible=1;marginBottom=0;whiteSpace=wrap;html=1;fillColor=#b0e3e6;strokeColor=#0e8088;rounded=1;fontSize=10;fontFamily=Georgia;" parent="1" vertex="1">
          <mxGeometry x="557" y="300" width="223" height="220" as="geometry" />
        </mxCell>
        <mxCell id="e51l-U1AH-l_leqLZLDB-48" value="+ stopwords : set(str)&lt;br style=&quot;font-size: 10px;&quot;&gt;+ lematizing : function&lt;br style=&quot;font-size: 10px;&quot;&gt;+ stemming : function&lt;br style=&quot;font-size: 10px;&quot;&gt;+ collection_pattern : str&lt;br style=&quot;font-size: 10px;&quot;&gt;" style="text;strokeColor=none;fillColor=none;align=left;verticalAlign=top;spacingLeft=4;spacingRight=4;overflow=hidden;rotatable=0;points=[[0,0.5],[1,0.5]];portConstraint=eastwest;whiteSpace=wrap;html=1;fontSize=10;fontFamily=Georgia;" parent="e51l-U1AH-l_leqLZLDB-47" vertex="1">
          <mxGeometry y="26" width="223" height="64" as="geometry" />
        </mxCell>
        <mxCell id="e51l-U1AH-l_leqLZLDB-49" value="" style="line;strokeWidth=1;fillColor=none;align=left;verticalAlign=middle;spacingTop=-1;spacingLeft=3;spacingRight=3;rotatable=0;labelPosition=right;points=[];portConstraint=eastwest;strokeColor=inherit;fontSize=10;fontFamily=Georgia;" parent="e51l-U1AH-l_leqLZLDB-47" vertex="1">
          <mxGeometry y="90" width="223" height="8" as="geometry" />
        </mxCell>
        <mxCell id="e51l-U1AH-l_leqLZLDB-50" value="+ __init__(bool, bool, str, str, str, str)&lt;br style=&quot;font-size: 10px;&quot;&gt;&lt;span style=&quot;border-color: var(--border-color); font-size: 10px;&quot;&gt;- _identity(Any) : Any&lt;/span&gt;&lt;br style=&quot;border-color: var(--border-color); font-size: 10px;&quot;&gt;- _normalize(str) : str&lt;br style=&quot;font-size: 10px;&quot;&gt;- _tokenize(str) : str&lt;br style=&quot;font-size: 10px;&quot;&gt;- _is_valid_token(str) : bool&lt;br style=&quot;font-size: 10px;&quot;&gt;- _doc_preprocessing(str) : list(str)&lt;br style=&quot;font-size: 10px;&quot;&gt;- _preprocessing(int, str) : tuple(int, list(str)&lt;br style=&quot;font-size: 10px;&quot;&gt;+ load_and_lower_text_collection(str) : str&lt;br style=&quot;font-size: 10px;&quot;&gt;+ pre_process(str, bool) : list(tuple(id, list(str)))" style="text;strokeColor=none;fillColor=none;align=left;verticalAlign=top;spacingLeft=4;spacingRight=4;overflow=hidden;rotatable=0;points=[[0,0.5],[1,0.5]];portConstraint=eastwest;whiteSpace=wrap;html=1;fontSize=10;fontFamily=Georgia;" parent="e51l-U1AH-l_leqLZLDB-47" vertex="1">
          <mxGeometry y="98" width="223" height="122" as="geometry" />
        </mxCell>
        <mxCell id="8TO3piSSpYTI3bl7hMEA-17" value="" style="endArrow=classic;html=1;rounded=0;exitX=0.535;exitY=-0.001;exitDx=0;exitDy=0;entryX=0.458;entryY=1.003;entryDx=0;entryDy=0;entryPerimeter=0;exitPerimeter=0;fontSize=10;fontFamily=Georgia;" parent="1" source="e51l-U1AH-l_leqLZLDB-7" target="e51l-U1AH-l_leqLZLDB-4" edge="1">
          <mxGeometry width="50" height="50" relative="1" as="geometry">
            <mxPoint x="80" y="288" as="sourcePoint" />
            <mxPoint x="173" y="239" as="targetPoint" />
            <Array as="points">
              <mxPoint x="64" y="238" />
              <mxPoint x="110" y="238" />
            </Array>
          </mxGeometry>
        </mxCell>
        <mxCell id="8TO3piSSpYTI3bl7hMEA-19" value="" style="endArrow=classic;html=1;rounded=0;exitX=0.5;exitY=0;exitDx=0;exitDy=0;entryX=0.458;entryY=1.002;entryDx=0;entryDy=0;entryPerimeter=0;fontSize=10;fontFamily=Georgia;" parent="1" source="e51l-U1AH-l_leqLZLDB-15" target="e51l-U1AH-l_leqLZLDB-4" edge="1">
          <mxGeometry width="50" height="50" relative="1" as="geometry">
            <mxPoint x="260" y="218" as="sourcePoint" />
            <mxPoint x="181" y="172" as="targetPoint" />
            <Array as="points">
              <mxPoint x="200" y="708" />
              <mxPoint x="160" y="708" />
              <mxPoint x="160" y="238" />
              <mxPoint x="110" y="238" />
            </Array>
          </mxGeometry>
        </mxCell>
        <mxCell id="8TO3piSSpYTI3bl7hMEA-21" value="" style="endArrow=classic;html=1;rounded=0;exitX=0.48;exitY=0.001;exitDx=0;exitDy=0;entryX=0.48;entryY=0.995;entryDx=0;entryDy=0;entryPerimeter=0;fontSize=10;fontFamily=Georgia;exitPerimeter=0;" parent="1" source="e51l-U1AH-l_leqLZLDB-30" edge="1" target="e51l-U1AH-l_leqLZLDB-22">
          <mxGeometry width="50" height="50" relative="1" as="geometry">
            <mxPoint x="590" y="250" as="sourcePoint" />
            <mxPoint x="830.0799999999999" y="228" as="targetPoint" />
            <Array as="points" />
          </mxGeometry>
        </mxCell>
        <mxCell id="8TO3piSSpYTI3bl7hMEA-23" value="" style="endArrow=classic;html=1;rounded=0;exitX=0.481;exitY=-0.002;exitDx=0;exitDy=0;entryX=0.481;entryY=1.002;entryDx=0;entryDy=0;entryPerimeter=0;fontSize=10;fontFamily=Georgia;exitPerimeter=0;" parent="1" source="e51l-U1AH-l_leqLZLDB-38" edge="1" target="e51l-U1AH-l_leqLZLDB-33">
          <mxGeometry width="50" height="50" relative="1" as="geometry">
            <mxPoint x="952" y="282" as="sourcePoint" />
            <mxPoint x="830" y="228" as="targetPoint" />
            <Array as="points">
              <mxPoint x="420" y="708" />
              <mxPoint x="360" y="708" />
            </Array>
          </mxGeometry>
        </mxCell>
        <mxCell id="8TO3piSSpYTI3bl7hMEA-26" value="" style="endArrow=classic;html=1;rounded=0;exitX=0.506;exitY=-0.002;exitDx=0;exitDy=0;entryX=0.446;entryY=0.999;entryDx=0;entryDy=0;entryPerimeter=0;fontSize=10;fontFamily=Georgia;exitPerimeter=0;" parent="1" source="e51l-U1AH-l_leqLZLDB-47" target="e51l-U1AH-l_leqLZLDB-46" edge="1">
          <mxGeometry width="50" height="50" relative="1" as="geometry">
            <mxPoint x="522" y="405" as="sourcePoint" />
            <mxPoint x="519.4400000000003" y="192" as="targetPoint" />
            <Array as="points" />
          </mxGeometry>
        </mxCell>
        <mxCell id="8TO3piSSpYTI3bl7hMEA-28" value="" style="endArrow=classic;html=1;rounded=0;exitX=0.379;exitY=0;exitDx=0;exitDy=0;entryX=0.548;entryY=1.004;entryDx=0;entryDy=0;entryPerimeter=0;fontSize=10;fontFamily=Georgia;exitPerimeter=0;" parent="1" source="e51l-U1AH-l_leqLZLDB-55" target="e51l-U1AH-l_leqLZLDB-50" edge="1">
          <mxGeometry width="50" height="50" relative="1" as="geometry">
            <mxPoint x="560" y="658" as="sourcePoint" />
            <mxPoint x="630" y="969.3911769701087" as="targetPoint" />
            <Array as="points" />
          </mxGeometry>
        </mxCell>
        <mxCell id="d6zgjMtpJLF20klKCyxH-1" value="" style="endArrow=diamondThin;endFill=1;endSize=11;html=1;rounded=0;exitX=1.008;exitY=0.031;exitDx=0;exitDy=0;entryX=0.998;entryY=0.035;entryDx=0;entryDy=0;entryPerimeter=0;fontSize=10;fontFamily=Georgia;exitPerimeter=0;" parent="1" source="3E4O9BEUz1lRJepPxAch-15" target="e51l-U1AH-l_leqLZLDB-19" edge="1">
          <mxGeometry width="160" relative="1" as="geometry">
            <mxPoint x="1534.75" y="120" as="sourcePoint" />
            <mxPoint x="489.9999999999998" y="74.5920000000001" as="targetPoint" />
            <Array as="points">
              <mxPoint x="1640" y="498" />
              <mxPoint x="1640" y="28" />
            </Array>
          </mxGeometry>
        </mxCell>
        <mxCell id="1x9eWUlKdQCIHLHu8LMn-1" value="XMLElement" style="swimlane;fontStyle=1;align=center;verticalAlign=top;childLayout=stackLayout;horizontal=1;startSize=26;horizontalStack=0;resizeParent=1;resizeParentMax=0;resizeLast=0;collapsible=1;marginBottom=0;whiteSpace=wrap;html=1;fillColor=#d0cee2;strokeColor=#56517e;rounded=1;fontSize=10;fontFamily=Georgia;" parent="1" vertex="1">
          <mxGeometry y="738" width="110" height="270" as="geometry" />
        </mxCell>
        <mxCell id="1x9eWUlKdQCIHLHu8LMn-2" value="+ attributes : dict&lt;br style=&quot;font-size: 10px;&quot;&gt;+ content : str&lt;br style=&quot;font-size: 10px;&quot;&gt;+ childs : XMLElement{}" style="text;strokeColor=none;fillColor=none;align=left;verticalAlign=top;spacingLeft=4;spacingRight=4;overflow=hidden;rotatable=0;points=[[0,0.5],[1,0.5]];portConstraint=eastwest;whiteSpace=wrap;html=1;fontSize=10;fontFamily=Georgia;" parent="1x9eWUlKdQCIHLHu8LMn-1" vertex="1">
          <mxGeometry y="26" width="110" height="48" as="geometry" />
        </mxCell>
        <mxCell id="1x9eWUlKdQCIHLHu8LMn-3" value="" style="line;strokeWidth=1;fillColor=none;align=left;verticalAlign=middle;spacingTop=-1;spacingLeft=3;spacingRight=3;rotatable=0;labelPosition=right;points=[];portConstraint=eastwest;strokeColor=inherit;fontSize=10;fontFamily=Georgia;" parent="1x9eWUlKdQCIHLHu8LMn-1" vertex="1">
          <mxGeometry y="74" width="110" height="11" as="geometry" />
        </mxCell>
        <mxCell id="1x9eWUlKdQCIHLHu8LMn-4" value="+ __init__(int, str, dict, str, dict)&lt;br style=&quot;font-size: 10px;&quot;&gt;+ __len__() : int&lt;br style=&quot;font-size: 10px;&quot;&gt;+ get_doc_id() : str&lt;br style=&quot;font-size: 10px;&quot;&gt;+ get_xpath() : str&lt;br style=&quot;font-size: 10px;&quot;&gt;+ next_child() : XMLElement&lt;br style=&quot;font-size: 10px;&quot;&gt;+ get_text_content() : list[str]&lt;br style=&quot;font-size: 10px;&quot;&gt;+ get_xml_element_list() : list[XMLElement]&lt;br style=&quot;font-size: 10px;&quot;&gt;- _del_tokens_list() : None" style="text;strokeColor=none;fillColor=none;align=left;verticalAlign=top;spacingLeft=4;spacingRight=4;overflow=hidden;rotatable=0;points=[[0,0.5],[1,0.5]];portConstraint=eastwest;whiteSpace=wrap;html=1;fontSize=10;fontFamily=Georgia;" parent="1x9eWUlKdQCIHLHu8LMn-1" vertex="1">
          <mxGeometry y="85" width="110" height="185" as="geometry" />
        </mxCell>
        <mxCell id="1x9eWUlKdQCIHLHu8LMn-5" value="" style="endArrow=diamondThin;endFill=1;endSize=11;html=1;rounded=0;exitX=1.008;exitY=0.688;exitDx=0;exitDy=0;entryX=0.001;entryY=0.529;entryDx=0;entryDy=0;exitPerimeter=0;fontSize=10;fontFamily=Georgia;entryPerimeter=0;" parent="1" source="1x9eWUlKdQCIHLHu8LMn-2" target="e51l-U1AH-l_leqLZLDB-16" edge="1">
          <mxGeometry width="160" relative="1" as="geometry">
            <mxPoint x="284" y="415" as="sourcePoint" />
            <mxPoint x="716" y="416" as="targetPoint" />
            <Array as="points" />
          </mxGeometry>
        </mxCell>
        <mxCell id="TDOq8ImsOCoTDgD2I6-n-1" value="IRun" style="swimlane;fontStyle=1;align=center;verticalAlign=top;childLayout=stackLayout;horizontal=1;startSize=26;horizontalStack=0;resizeParent=1;resizeParentMax=0;resizeLast=0;collapsible=1;marginBottom=0;whiteSpace=wrap;html=1;fillColor=#dae8fc;strokeColor=#6c8ebf;fontSize=10;fontFamily=Georgia;" parent="1" vertex="1">
          <mxGeometry x="1184" y="98" width="350" height="250" as="geometry" />
        </mxCell>
        <mxCell id="TDOq8ImsOCoTDgD2I6-n-2" value="&lt;u style=&quot;font-size: 10px;&quot;&gt;+ NB_RANKING = 1500&lt;br style=&quot;font-size: 10px;&quot;&gt;+ GROUP_NAME=&quot;MohammedWilliam&quot;&lt;br style=&quot;font-size: 10px;&quot;&gt;+ ID_FILE_PATH=&quot;../../last_id.txt&quot;&lt;/u&gt;" style="text;strokeColor=none;fillColor=none;align=left;verticalAlign=top;spacingLeft=4;spacingRight=4;overflow=hidden;rotatable=0;points=[[0,0.5],[1,0.5]];portConstraint=eastwest;whiteSpace=wrap;html=1;fontSize=10;fontFamily=Georgia;" parent="TDOq8ImsOCoTDgD2I6-n-1" vertex="1">
          <mxGeometry y="26" width="350" height="54" as="geometry" />
        </mxCell>
        <mxCell id="TDOq8ImsOCoTDgD2I6-n-3" value="" style="line;strokeWidth=1;fillColor=none;align=left;verticalAlign=middle;spacingTop=-1;spacingLeft=3;spacingRight=3;rotatable=0;labelPosition=right;points=[];portConstraint=eastwest;strokeColor=inherit;fontSize=10;fontFamily=Georgia;" parent="TDOq8ImsOCoTDgD2I6-n-1" vertex="1">
          <mxGeometry y="80" width="350" height="20" as="geometry" />
        </mxCell>
        <mxCell id="TDOq8ImsOCoTDgD2I6-n-4" value="+ __init__(str, list(str), str, dict)&lt;br style=&quot;font-size: 10px;&quot;&gt;+ ranking(list(InformationRessources, list(str), dict[str, float]) : None&lt;br style=&quot;font-size: 10px;&quot;&gt;+ save_run(bool) : bool&lt;br style=&quot;font-size: 10px;&quot;&gt;- load_last_id() : int&lt;br style=&quot;font-size: 10px;&quot;&gt;- save_last_id() : None&lt;br style=&quot;font-size: 10px;&quot;&gt;- _create_file_path(str, bool, str, str, dict) : None&lt;br style=&quot;font-size: 10px;&quot;&gt;- _delOverlappingXMLElement(list[tuple[str, float]]) :&amp;nbsp;list[tuple[str, float]]&lt;br style=&quot;font-size: 10px;&quot;&gt;-&amp;nbsp;_extractBestScores(list[tuple[str, float]]) :&amp;nbsp;list[tuple[str, float]]&lt;br style=&quot;font-size: 10px;&quot;&gt;-&amp;nbsp;_delIntertwinedResults(list[tuple[str, float]]) :&amp;nbsp;list[tuple[str, float]]&lt;br style=&quot;font-size: 10px;&quot;&gt;-&amp;nbsp;_writeResultLine(str, str, int, float) : None&lt;br style=&quot;font-size: 10px;&quot;&gt;-&amp;nbsp;_debugDisplayTopN(list[tuple[str, float]], int)" style="text;strokeColor=none;fillColor=none;align=left;verticalAlign=top;spacingLeft=4;spacingRight=4;overflow=hidden;rotatable=0;points=[[0,0.5],[1,0.5]];portConstraint=eastwest;whiteSpace=wrap;html=1;fontSize=10;fontFamily=Georgia;" parent="TDOq8ImsOCoTDgD2I6-n-1" vertex="1">
          <mxGeometry y="100" width="350" height="150" as="geometry" />
        </mxCell>
        <mxCell id="TDOq8ImsOCoTDgD2I6-n-5" value="&lt;i style=&quot;font-weight: normal; font-size: 10px;&quot;&gt;PostingList&lt;/i&gt;" style="swimlane;fontStyle=1;align=center;verticalAlign=top;childLayout=stackLayout;horizontal=1;startSize=30;horizontalStack=0;resizeParent=1;resizeParentMax=0;resizeLast=0;collapsible=1;marginBottom=0;whiteSpace=wrap;html=1;fillColor=#bac8d3;strokeColor=#23445d;glass=1;fontSize=10;fontFamily=Georgia;rounded=1;" parent="1" vertex="1">
          <mxGeometry x="836" y="69" width="160" height="170" as="geometry" />
        </mxCell>
        <mxCell id="TDOq8ImsOCoTDgD2I6-n-6" value="+ term : str&lt;br style=&quot;font-size: 10px;&quot;&gt;+ postings : dict(PostingListUnit)&lt;br style=&quot;font-size: 10px;&quot;&gt;+ document_frequency : float&lt;br style=&quot;font-size: 10px;&quot;&gt;+ total_frequency : float" style="text;strokeColor=none;fillColor=none;align=left;verticalAlign=top;spacingLeft=4;spacingRight=4;overflow=hidden;rotatable=0;points=[[0,0.5],[1,0.5]];portConstraint=eastwest;whiteSpace=wrap;html=1;fontSize=10;fontFamily=Georgia;" parent="TDOq8ImsOCoTDgD2I6-n-5" vertex="1">
          <mxGeometry y="30" width="160" height="60" as="geometry" />
        </mxCell>
        <mxCell id="TDOq8ImsOCoTDgD2I6-n-7" value="" style="line;strokeWidth=1;fillColor=none;align=left;verticalAlign=middle;spacingTop=-1;spacingLeft=3;spacingRight=3;rotatable=0;labelPosition=right;points=[];portConstraint=eastwest;strokeColor=inherit;fontSize=10;fontFamily=Georgia;" parent="TDOq8ImsOCoTDgD2I6-n-5" vertex="1">
          <mxGeometry y="90" width="160" height="8" as="geometry" />
        </mxCell>
        <mxCell id="TDOq8ImsOCoTDgD2I6-n-8" value="+ __init__(str)&lt;br style=&quot;font-size: 10px;&quot;&gt;+ __len__() : int&lt;br style=&quot;font-size: 10px;&quot;&gt;+ add_posting(PostingListUnit) : None&lt;br style=&quot;font-size: 10px;&quot;&gt;+ get_tfd(int) : float" style="text;strokeColor=none;fillColor=none;align=left;verticalAlign=top;spacingLeft=4;spacingRight=4;overflow=hidden;rotatable=0;points=[[0,0.5],[1,0.5]];portConstraint=eastwest;whiteSpace=wrap;html=1;fontSize=10;fontFamily=Georgia;" parent="TDOq8ImsOCoTDgD2I6-n-5" vertex="1">
          <mxGeometry y="98" width="160" height="72" as="geometry" />
        </mxCell>
        <mxCell id="TDOq8ImsOCoTDgD2I6-n-9" value="&lt;i style=&quot;font-weight: normal; font-size: 10px;&quot;&gt;PostingListUnit&lt;/i&gt;" style="swimlane;fontStyle=1;align=center;verticalAlign=top;childLayout=stackLayout;horizontal=1;startSize=28;horizontalStack=0;resizeParent=1;resizeParentMax=0;resizeLast=0;collapsible=1;marginBottom=0;whiteSpace=wrap;html=1;fillColor=#bac8d3;strokeColor=#23445d;glass=1;fontSize=10;fontFamily=Georgia;rounded=1;" parent="1" vertex="1">
          <mxGeometry x="1026" y="98" width="120" height="76" as="geometry" />
        </mxCell>
        <mxCell id="TDOq8ImsOCoTDgD2I6-n-10" value="+ document_id : int&lt;br style=&quot;font-size: 10px;&quot;&gt;+ frequency : float" style="text;strokeColor=none;fillColor=none;align=left;verticalAlign=top;spacingLeft=4;spacingRight=4;overflow=hidden;rotatable=0;points=[[0,0.5],[1,0.5]];portConstraint=eastwest;whiteSpace=wrap;html=1;fontSize=10;fontFamily=Georgia;" parent="TDOq8ImsOCoTDgD2I6-n-9" vertex="1">
          <mxGeometry y="28" width="120" height="40" as="geometry" />
        </mxCell>
        <mxCell id="TDOq8ImsOCoTDgD2I6-n-11" value="" style="line;strokeWidth=1;fillColor=none;align=left;verticalAlign=middle;spacingTop=-1;spacingLeft=3;spacingRight=3;rotatable=0;labelPosition=right;points=[];portConstraint=eastwest;strokeColor=inherit;fontSize=10;fontFamily=Georgia;" parent="TDOq8ImsOCoTDgD2I6-n-9" vertex="1">
          <mxGeometry y="68" width="120" height="8" as="geometry" />
        </mxCell>
        <mxCell id="TDOq8ImsOCoTDgD2I6-n-14" value="&lt;span style=&quot;font-size: 10px;&quot;&gt;&lt;span style=&quot;font-size: 10px;&quot;&gt;TextIndexer&lt;/span&gt;&lt;/span&gt;" style="swimlane;fontStyle=1;align=center;verticalAlign=top;childLayout=stackLayout;horizontal=1;startSize=28;horizontalStack=0;resizeParent=1;resizeParentMax=0;resizeLast=0;collapsible=1;marginBottom=0;whiteSpace=wrap;html=1;fillColor=#b0e3e6;strokeColor=#0e8088;glass=0;fontSize=10;fontFamily=Georgia;rounded=1;" parent="1" vertex="1">
          <mxGeometry x="827" y="300" width="183" height="180" as="geometry" />
        </mxCell>
        <mxCell id="TDOq8ImsOCoTDgD2I6-n-15" value="- posting_lists : dict(PostingList)" style="text;strokeColor=none;fillColor=none;align=left;verticalAlign=top;spacingLeft=4;spacingRight=4;overflow=hidden;rotatable=0;points=[[0,0.5],[1,0.5]];portConstraint=eastwest;whiteSpace=wrap;html=1;fontSize=10;fontFamily=Georgia;" parent="TDOq8ImsOCoTDgD2I6-n-14" vertex="1">
          <mxGeometry y="28" width="183" height="26" as="geometry" />
        </mxCell>
        <mxCell id="TDOq8ImsOCoTDgD2I6-n-16" value="" style="line;strokeWidth=1;fillColor=none;align=left;verticalAlign=middle;spacingTop=-1;spacingLeft=3;spacingRight=3;rotatable=0;labelPosition=right;points=[];portConstraint=eastwest;strokeColor=inherit;fontSize=10;fontFamily=Georgia;" parent="TDOq8ImsOCoTDgD2I6-n-14" vertex="1">
          <mxGeometry y="54" width="183" height="8" as="geometry" />
        </mxCell>
        <mxCell id="TDOq8ImsOCoTDgD2I6-n-17" value="+ __init__()&lt;br style=&quot;font-size: 10px;&quot;&gt;+ __len__() : int&lt;br style=&quot;font-size: 10px;&quot;&gt;+ __str__() : str&lt;br style=&quot;font-size: 10px;&quot;&gt;+ get_vocabulary_size() : int&lt;br style=&quot;font-size: 10px;&quot;&gt;+ get_vocabulary() : list[str]&lt;br style=&quot;font-size: 10px;&quot;&gt;+ get_df() : int&lt;br style=&quot;font-size: 10px;&quot;&gt;+ get_tf() : int&lt;br style=&quot;font-size: 10px;&quot;&gt;- _index_text(Document) : None&lt;br style=&quot;font-size: 10px;&quot;&gt;+ index(list(Documents, bool) : None" style="text;strokeColor=none;fillColor=none;align=left;verticalAlign=top;spacingLeft=4;spacingRight=4;overflow=hidden;rotatable=0;points=[[0,0.5],[1,0.5]];portConstraint=eastwest;whiteSpace=wrap;html=1;fontSize=10;fontFamily=Georgia;" parent="TDOq8ImsOCoTDgD2I6-n-14" vertex="1">
          <mxGeometry y="62" width="183" height="118" as="geometry" />
        </mxCell>
        <mxCell id="TDOq8ImsOCoTDgD2I6-n-19" value="&lt;span style=&quot;font-size: 10px;&quot;&gt;&lt;span style=&quot;font-size: 10px;&quot;&gt;XMLIndexer&lt;/span&gt;&lt;/span&gt;" style="swimlane;fontStyle=1;align=center;verticalAlign=top;childLayout=stackLayout;horizontal=1;startSize=30;horizontalStack=0;resizeParent=1;resizeParentMax=0;resizeLast=0;collapsible=1;marginBottom=0;whiteSpace=wrap;html=1;fillColor=#d0cee2;strokeColor=#56517e;glass=0;fontSize=10;fontFamily=Georgia;swimlaneLine=1;rounded=1;arcSize=18;" parent="1" vertex="1">
          <mxGeometry x="860" y="738" width="160" height="140" as="geometry" />
        </mxCell>
        <mxCell id="TDOq8ImsOCoTDgD2I6-n-20" value="&lt;u style=&quot;font-size: 10px;&quot;&gt;+ index_anchors : bool&lt;br style=&quot;font-size: 10px;&quot;&gt;&lt;br style=&quot;font-size: 10px;&quot;&gt;&lt;/u&gt;" style="text;strokeColor=none;fillColor=none;align=left;verticalAlign=top;spacingLeft=4;spacingRight=4;overflow=hidden;rotatable=0;points=[[0,0.5],[1,0.5]];portConstraint=eastwest;whiteSpace=wrap;html=1;fontSize=10;fontFamily=Georgia;" parent="TDOq8ImsOCoTDgD2I6-n-19" vertex="1">
          <mxGeometry y="30" width="160" height="26" as="geometry" />
        </mxCell>
        <mxCell id="TDOq8ImsOCoTDgD2I6-n-21" value="" style="line;strokeWidth=1;fillColor=none;align=left;verticalAlign=middle;spacingTop=-1;spacingLeft=3;spacingRight=3;rotatable=0;labelPosition=right;points=[];portConstraint=eastwest;strokeColor=inherit;fontSize=10;fontFamily=Georgia;" parent="TDOq8ImsOCoTDgD2I6-n-19" vertex="1">
          <mxGeometry y="56" width="160" height="8" as="geometry" />
        </mxCell>
        <mxCell id="TDOq8ImsOCoTDgD2I6-n-22" value="- _index_fields(XMLDocument) : None&lt;br style=&quot;font-size: 10px;&quot;&gt;+ index(list(XMLDocument) : None&lt;br style=&quot;font-size: 10px;&quot;&gt;- index_anchors() : None" style="text;strokeColor=none;fillColor=none;align=left;verticalAlign=top;spacingLeft=4;spacingRight=4;overflow=hidden;rotatable=0;points=[[0,0.5],[1,0.5]];portConstraint=eastwest;whiteSpace=wrap;html=1;fontSize=10;fontFamily=Georgia;" parent="TDOq8ImsOCoTDgD2I6-n-19" vertex="1">
          <mxGeometry y="64" width="160" height="76" as="geometry" />
        </mxCell>
        <mxCell id="TDOq8ImsOCoTDgD2I6-n-23" value="" style="endArrow=classic;html=1;rounded=0;exitX=0.46;exitY=-0.002;exitDx=0;exitDy=0;entryX=0.458;entryY=0.999;entryDx=0;entryDy=0;entryPerimeter=0;fontSize=10;fontFamily=Georgia;exitPerimeter=0;" parent="1" source="1x9eWUlKdQCIHLHu8LMn-1" target="e51l-U1AH-l_leqLZLDB-4" edge="1">
          <mxGeometry width="50" height="50" relative="1" as="geometry">
            <mxPoint x="139.9999999999999" y="868" as="sourcePoint" />
            <mxPoint x="141.26" y="89.83999999999992" as="targetPoint" />
            <Array as="points">
              <mxPoint x="50" y="708" />
              <mxPoint x="160" y="708" />
              <mxPoint x="160" y="238" />
              <mxPoint x="110" y="238" />
            </Array>
          </mxGeometry>
        </mxCell>
        <mxCell id="ESE53T7GJnnuN29uZylQ-4" value="" style="endArrow=classic;html=1;rounded=0;entryX=0.508;entryY=1.001;entryDx=0;entryDy=0;entryPerimeter=0;exitX=0.372;exitY=-0.003;exitDx=0;exitDy=0;fontSize=10;fontFamily=Georgia;exitPerimeter=0;" parent="1" source="TDOq8ImsOCoTDgD2I6-n-19" target="TDOq8ImsOCoTDgD2I6-n-17" edge="1">
          <mxGeometry width="50" height="50" relative="1" as="geometry">
            <mxPoint x="1700" y="508" as="sourcePoint" />
            <mxPoint x="1540" y="547" as="targetPoint" />
            <Array as="points" />
          </mxGeometry>
        </mxCell>
        <mxCell id="3E4O9BEUz1lRJepPxAch-5" value="PageRank" style="swimlane;fontStyle=1;align=center;verticalAlign=top;childLayout=stackLayout;horizontal=1;startSize=26;horizontalStack=0;resizeParent=1;resizeParentMax=0;resizeLast=0;collapsible=1;marginBottom=0;whiteSpace=wrap;html=1;fillColor=#dae8fc;strokeColor=#6c8ebf;fontSize=10;fontFamily=Georgia;rounded=1;" parent="1" vertex="1">
          <mxGeometry x="1020" y="360" width="200" height="120" as="geometry" />
        </mxCell>
        <mxCell id="3E4O9BEUz1lRJepPxAch-6" value="- graph : list[tuple[str, str, list[str]]]" style="text;strokeColor=none;fillColor=none;align=left;verticalAlign=top;spacingLeft=4;spacingRight=4;overflow=hidden;rotatable=0;points=[[0,0.5],[1,0.5]];portConstraint=eastwest;whiteSpace=wrap;html=1;fontSize=10;fontFamily=Georgia;" parent="3E4O9BEUz1lRJepPxAch-5" vertex="1">
          <mxGeometry y="26" width="200" height="26" as="geometry" />
        </mxCell>
        <mxCell id="3E4O9BEUz1lRJepPxAch-7" value="" style="line;strokeWidth=1;fillColor=none;align=left;verticalAlign=middle;spacingTop=-1;spacingLeft=3;spacingRight=3;rotatable=0;labelPosition=right;points=[];portConstraint=eastwest;strokeColor=inherit;fontSize=10;fontFamily=Georgia;" parent="3E4O9BEUz1lRJepPxAch-5" vertex="1">
          <mxGeometry y="52" width="200" height="8" as="geometry" />
        </mxCell>
        <mxCell id="3E4O9BEUz1lRJepPxAch-8" value="+ __init__(llist[tuple[str, str, list[str]]])&lt;br style=&quot;font-size: 10px;&quot;&gt;+ pagerank(float, int, float) : dict[str, float]&lt;br style=&quot;font-size: 10px;&quot;&gt;+ load(str) : dict[str, float]&lt;br style=&quot;font-size: 10px;&quot;&gt;+save(str, dict[str, float] :bool" style="text;strokeColor=none;fillColor=none;align=left;verticalAlign=top;spacingLeft=4;spacingRight=4;overflow=hidden;rotatable=0;points=[[0,0.5],[1,0.5]];portConstraint=eastwest;whiteSpace=wrap;html=1;fontSize=10;fontFamily=Georgia;" parent="3E4O9BEUz1lRJepPxAch-5" vertex="1">
          <mxGeometry y="60" width="200" height="60" as="geometry" />
        </mxCell>
        <mxCell id="e51l-U1AH-l_leqLZLDB-55" value="XMLPreprocessor" style="swimlane;fontStyle=1;align=center;verticalAlign=top;childLayout=stackLayout;horizontal=1;startSize=26;horizontalStack=0;resizeParent=1;resizeParentMax=0;resizeLast=0;collapsible=1;marginBottom=0;whiteSpace=wrap;html=1;fillColor=#d0cee2;strokeColor=#56517e;rounded=1;fontSize=10;fontFamily=Georgia;" parent="1" vertex="1">
          <mxGeometry x="586" y="739" width="240" height="180" as="geometry" />
        </mxCell>
        <mxCell id="e51l-U1AH-l_leqLZLDB-56" value="&lt;u style=&quot;font-size: 10px;&quot;&gt;+ anchors : list[tuple[str, str, list[str]]]&lt;/u&gt;" style="text;strokeColor=none;fillColor=none;align=left;verticalAlign=top;spacingLeft=4;spacingRight=4;overflow=hidden;rotatable=0;points=[[0,0.5],[1,0.5]];portConstraint=eastwest;whiteSpace=wrap;html=1;fontSize=10;fontFamily=Georgia;" parent="e51l-U1AH-l_leqLZLDB-55" vertex="1">
          <mxGeometry y="26" width="240" height="26" as="geometry" />
        </mxCell>
        <mxCell id="e51l-U1AH-l_leqLZLDB-57" value="" style="line;strokeWidth=1;fillColor=none;align=left;verticalAlign=middle;spacingTop=-1;spacingLeft=3;spacingRight=3;rotatable=0;labelPosition=right;points=[];portConstraint=eastwest;strokeColor=inherit;fontSize=10;fontFamily=Georgia;" parent="e51l-U1AH-l_leqLZLDB-55" vertex="1">
          <mxGeometry y="52" width="240" height="8" as="geometry" />
        </mxCell>
        <mxCell id="e51l-U1AH-l_leqLZLDB-58" value="+ __init__(bool, bool, str, str, str, str)&lt;br style=&quot;font-size: 10px;&quot;&gt;- _update_xpath(str, str, dict) : str&lt;br style=&quot;font-size: 10px;&quot;&gt;- _fetch_articles(str) : &lt;br&gt;&lt;span style=&quot;white-space: pre;&quot;&gt;&#x9;&lt;/span&gt;list(tuple(str, minidomDocument))&lt;br style=&quot;font-size: 10px;&quot;&gt;+ load(str) : list(tuple(str, minidom.Document)&lt;br style=&quot;font-size: 10px;&quot;&gt;- _extract_text(minidom.Node, str) : str&lt;br style=&quot;font-size: 10px;&quot;&gt;- _browse(minidom.Node, str, str) : XMLElement&lt;br style=&quot;font-size: 10px;&quot;&gt;+ pre_process(list(tuple(str, minidomDocument))) : list(XMLDocument)" style="text;strokeColor=none;fillColor=none;align=left;verticalAlign=top;spacingLeft=4;spacingRight=4;overflow=hidden;rotatable=0;points=[[0,0.5],[1,0.5]];portConstraint=eastwest;whiteSpace=wrap;html=1;fontSize=10;fontFamily=Georgia;" parent="e51l-U1AH-l_leqLZLDB-55" vertex="1">
          <mxGeometry y="60" width="240" height="120" as="geometry" />
        </mxCell>
        <mxCell id="3E4O9BEUz1lRJepPxAch-12" value="&amp;lt;&amp;lt;abstract&amp;gt;&amp;gt;&lt;br style=&quot;font-size: 10px;&quot;&gt;WeightingFunction" style="swimlane;fontStyle=1;align=center;verticalAlign=top;childLayout=stackLayout;horizontal=1;startSize=40;horizontalStack=0;resizeParent=1;resizeParentMax=0;resizeLast=0;collapsible=1;marginBottom=0;whiteSpace=wrap;html=1;fillColor=#f8cecc;strokeColor=#b85450;fontSize=10;fontFamily=Georgia;" parent="1" vertex="1">
          <mxGeometry x="1230" y="457" width="270" height="102" as="geometry" />
        </mxCell>
        <mxCell id="3E4O9BEUz1lRJepPxAch-15" value="+ compute_scores(list(InformationRessources), list(str), TextIndexer) : dict[float, str]" style="text;strokeColor=none;fillColor=none;align=left;verticalAlign=top;spacingLeft=4;spacingRight=4;overflow=hidden;rotatable=0;points=[[0,0.5],[1,0.5]];portConstraint=eastwest;whiteSpace=wrap;html=1;fontSize=10;fontFamily=Georgia;" parent="3E4O9BEUz1lRJepPxAch-12" vertex="1">
          <mxGeometry y="40" width="270" height="62" as="geometry" />
        </mxCell>
        <mxCell id="3E4O9BEUz1lRJepPxAch-16" value="BM25" style="swimlane;fontStyle=1;align=center;verticalAlign=top;childLayout=stackLayout;horizontal=1;startSize=28;horizontalStack=0;resizeParent=1;resizeParentMax=0;resizeLast=0;collapsible=1;marginBottom=0;whiteSpace=wrap;html=1;fillColor=#f8cecc;strokeColor=#b85450;fontSize=10;fontFamily=Georgia;" parent="1" vertex="1">
          <mxGeometry x="1053" y="629" width="205" height="238" as="geometry" />
        </mxCell>
        <mxCell id="3E4O9BEUz1lRJepPxAch-17" value="- N : int&lt;br style=&quot;font-size: 10px;&quot;&gt;- avdl : float&lt;br style=&quot;font-size: 10px;&quot;&gt;- k1 : float&lt;br style=&quot;font-size: 10px;&quot;&gt;- b: float&lt;br style=&quot;font-size: 10px;&quot;&gt;- k1_plus_1 : float&lt;br style=&quot;font-size: 10px;&quot;&gt;-&amp;nbsp;k1_times_1_minus_b : float&lt;br style=&quot;font-size: 10px;&quot;&gt;-&amp;nbsp;&amp;nbsp;k1_times_b_times_inv_avdl : float&lt;br style=&quot;font-size: 10px;&quot;&gt;-&amp;nbsp;N_plus_0_5 : float" style="text;strokeColor=none;fillColor=none;align=left;verticalAlign=top;spacingLeft=4;spacingRight=4;overflow=hidden;rotatable=0;points=[[0,0.5],[1,0.5]];portConstraint=eastwest;whiteSpace=wrap;html=1;fontSize=10;fontFamily=Georgia;" parent="3E4O9BEUz1lRJepPxAch-16" vertex="1">
          <mxGeometry y="28" width="205" height="110" as="geometry" />
        </mxCell>
        <mxCell id="3E4O9BEUz1lRJepPxAch-18" value="" style="line;strokeWidth=1;fillColor=none;align=left;verticalAlign=middle;spacingTop=-1;spacingLeft=3;spacingRight=3;rotatable=0;labelPosition=right;points=[];portConstraint=eastwest;strokeColor=inherit;fontSize=10;fontFamily=Georgia;" parent="3E4O9BEUz1lRJepPxAch-16" vertex="1">
          <mxGeometry y="138" width="205" height="8" as="geometry" />
        </mxCell>
        <mxCell id="3E4O9BEUz1lRJepPxAch-19" value="- compute_idf_part(float): float&lt;br style=&quot;font-size: 10px;&quot;&gt;-&amp;nbsp;compute_tf_weight_tf_part(float) : float&lt;br style=&quot;font-size: 10px;&quot;&gt;- compute_tf_weight_dl_part(float) : float&lt;br style=&quot;font-size: 10px;&quot;&gt;- compute_weight(float, float, int) : float&lt;br style=&quot;font-size: 10px;&quot;&gt;+&amp;nbsp;compute_scores(InformationRessources, list(str), TextIndexer): dict[str, float]" style="text;strokeColor=none;fillColor=none;align=left;verticalAlign=top;spacingLeft=4;spacingRight=4;overflow=hidden;rotatable=0;points=[[0,0.5],[1,0.5]];portConstraint=eastwest;whiteSpace=wrap;html=1;fontSize=10;fontFamily=Georgia;" parent="3E4O9BEUz1lRJepPxAch-16" vertex="1">
          <mxGeometry y="146" width="205" height="92" as="geometry" />
        </mxCell>
        <mxCell id="3E4O9BEUz1lRJepPxAch-20" value="" style="endArrow=classic;html=1;rounded=0;exitX=0.517;exitY=-0.004;exitDx=0;exitDy=0;exitPerimeter=0;fontSize=10;fontFamily=Georgia;entryX=0.481;entryY=1.007;entryDx=0;entryDy=0;entryPerimeter=0;" parent="1" source="3E4O9BEUz1lRJepPxAch-16" target="3E4O9BEUz1lRJepPxAch-15" edge="1">
          <mxGeometry width="50" height="50" relative="1" as="geometry">
            <mxPoint x="1210" y="612" as="sourcePoint" />
            <mxPoint x="1390" y="567" as="targetPoint" />
            <Array as="points">
              <mxPoint x="1160" y="597" />
              <mxPoint x="1370" y="597" />
              <mxPoint x="1360" y="597" />
            </Array>
          </mxGeometry>
        </mxCell>
        <mxCell id="3E4O9BEUz1lRJepPxAch-21" value="SMART_lnu" style="swimlane;fontStyle=1;align=center;verticalAlign=top;childLayout=stackLayout;horizontal=1;startSize=20;horizontalStack=0;resizeParent=1;resizeParentMax=0;resizeLast=0;collapsible=1;marginBottom=0;whiteSpace=wrap;html=1;fillColor=#f8cecc;strokeColor=#b85450;fontSize=10;fontFamily=Georgia;" parent="1" vertex="1">
          <mxGeometry x="1380" y="727" width="160" height="130" as="geometry" />
        </mxCell>
        <mxCell id="3E4O9BEUz1lRJepPxAch-22" value="- N : int&lt;br style=&quot;font-size: 10px;&quot;&gt;- slope : float" style="text;strokeColor=none;fillColor=none;align=left;verticalAlign=top;spacingLeft=4;spacingRight=4;overflow=hidden;rotatable=0;points=[[0,0.5],[1,0.5]];portConstraint=eastwest;whiteSpace=wrap;html=1;fontSize=10;fontFamily=Georgia;" parent="3E4O9BEUz1lRJepPxAch-21" vertex="1">
          <mxGeometry y="20" width="160" height="30" as="geometry" />
        </mxCell>
        <mxCell id="3E4O9BEUz1lRJepPxAch-23" value="" style="line;strokeWidth=1;fillColor=none;align=left;verticalAlign=middle;spacingTop=-1;spacingLeft=3;spacingRight=3;rotatable=0;labelPosition=right;points=[];portConstraint=eastwest;strokeColor=inherit;fontSize=10;fontFamily=Georgia;" parent="3E4O9BEUz1lRJepPxAch-21" vertex="1">
          <mxGeometry y="50" width="160" height="8" as="geometry" />
        </mxCell>
        <mxCell id="3E4O9BEUz1lRJepPxAch-24" value="-&amp;nbsp;_compute_weight(float, float, float, float) : float&lt;br style=&quot;font-size: 10px;&quot;&gt;+ compute_scores(&lt;br&gt;InformationRessources, list(str), TextIndexer): dict[str, float]" style="text;strokeColor=none;fillColor=none;align=left;verticalAlign=top;spacingLeft=4;spacingRight=4;overflow=hidden;rotatable=0;points=[[0,0.5],[1,0.5]];portConstraint=eastwest;whiteSpace=wrap;html=1;fontSize=10;fontFamily=Georgia;" parent="3E4O9BEUz1lRJepPxAch-21" vertex="1">
          <mxGeometry y="58" width="160" height="72" as="geometry" />
        </mxCell>
        <mxCell id="3E4O9BEUz1lRJepPxAch-27" value="BM25Fr" style="swimlane;fontStyle=1;align=center;verticalAlign=top;childLayout=stackLayout;horizontal=1;startSize=20;horizontalStack=0;resizeParent=1;resizeParentMax=0;resizeLast=0;collapsible=1;marginBottom=0;whiteSpace=wrap;html=1;fillColor=#f8cecc;strokeColor=#b85450;fontSize=10;fontFamily=Georgia;" parent="1" vertex="1">
          <mxGeometry x="1020" y="936" width="120" height="82" as="geometry" />
        </mxCell>
        <mxCell id="3E4O9BEUz1lRJepPxAch-30" value="+&amp;nbsp;compute_scores(&lt;br&gt;InformationRessources, list(str), TextIndexer): dict[str, float]" style="text;strokeColor=none;fillColor=none;align=left;verticalAlign=top;spacingLeft=4;spacingRight=4;overflow=hidden;rotatable=0;points=[[0,0.5],[1,0.5]];portConstraint=eastwest;whiteSpace=wrap;html=1;fontSize=10;fontFamily=Georgia;" parent="3E4O9BEUz1lRJepPxAch-27" vertex="1">
          <mxGeometry y="20" width="120" height="62" as="geometry" />
        </mxCell>
        <mxCell id="3E4O9BEUz1lRJepPxAch-35" value="BM25Fw" style="swimlane;fontStyle=1;align=center;verticalAlign=top;childLayout=stackLayout;horizontal=1;startSize=20;horizontalStack=0;resizeParent=1;resizeParentMax=0;resizeLast=0;collapsible=1;marginBottom=0;whiteSpace=wrap;html=1;fillColor=#f8cecc;strokeColor=#b85450;fontSize=10;fontFamily=Georgia;" parent="1" vertex="1">
          <mxGeometry x="1150" y="936" width="120" height="82" as="geometry" />
        </mxCell>
        <mxCell id="3E4O9BEUz1lRJepPxAch-37" value="+&amp;nbsp;compute_scores(&lt;br&gt;InformationRessources, list(str), TextIndexer): dict[str, float]" style="text;strokeColor=none;fillColor=none;align=left;verticalAlign=top;spacingLeft=4;spacingRight=4;overflow=hidden;rotatable=0;points=[[0,0.5],[1,0.5]];portConstraint=eastwest;whiteSpace=wrap;html=1;fontSize=10;fontFamily=Georgia;" parent="3E4O9BEUz1lRJepPxAch-35" vertex="1">
          <mxGeometry y="20" width="120" height="62" as="geometry" />
        </mxCell>
        <mxCell id="3E4O9BEUz1lRJepPxAch-38" value="" style="endArrow=classic;html=1;rounded=0;entryX=0.522;entryY=0.998;entryDx=0;entryDy=0;entryPerimeter=0;exitX=0.5;exitY=0;exitDx=0;exitDy=0;fontSize=10;fontFamily=Georgia;" parent="1" source="3E4O9BEUz1lRJepPxAch-27" target="3E4O9BEUz1lRJepPxAch-19" edge="1">
          <mxGeometry width="50" height="50" relative="1" as="geometry">
            <mxPoint x="1150" y="875" as="sourcePoint" />
            <mxPoint x="1160.2150000000001" y="785.0919999999996" as="targetPoint" />
            <Array as="points">
              <mxPoint x="1080" y="915" />
              <mxPoint x="1160" y="915" />
            </Array>
          </mxGeometry>
        </mxCell>
        <mxCell id="3E4O9BEUz1lRJepPxAch-39" value="" style="endArrow=classic;html=1;rounded=0;exitX=0.5;exitY=0;exitDx=0;exitDy=0;fontSize=10;fontFamily=Georgia;" parent="1" source="3E4O9BEUz1lRJepPxAch-35" edge="1">
          <mxGeometry width="50" height="50" relative="1" as="geometry">
            <mxPoint x="1180" y="885" as="sourcePoint" />
            <mxPoint x="1160" y="867" as="targetPoint" />
            <Array as="points">
              <mxPoint x="1210" y="915" />
              <mxPoint x="1160" y="915" />
            </Array>
          </mxGeometry>
        </mxCell>
        <mxCell id="3E4O9BEUz1lRJepPxAch-40" value="SMART_ltc" style="swimlane;fontStyle=1;align=center;verticalAlign=top;childLayout=stackLayout;horizontal=1;startSize=20;horizontalStack=0;resizeParent=1;resizeParentMax=0;resizeLast=0;collapsible=1;marginBottom=0;whiteSpace=wrap;html=1;fillColor=#f8cecc;strokeColor=#b85450;fontSize=10;fontFamily=Georgia;" parent="1" vertex="1">
          <mxGeometry x="1280" y="888" width="170" height="130" as="geometry" />
        </mxCell>
        <mxCell id="3E4O9BEUz1lRJepPxAch-41" value="- smart_ltn : SMART_ltn" style="text;strokeColor=none;fillColor=none;align=left;verticalAlign=top;spacingLeft=4;spacingRight=4;overflow=hidden;rotatable=0;points=[[0,0.5],[1,0.5]];portConstraint=eastwest;whiteSpace=wrap;html=1;fontSize=10;fontFamily=Georgia;" parent="3E4O9BEUz1lRJepPxAch-40" vertex="1">
          <mxGeometry y="20" width="170" height="30" as="geometry" />
        </mxCell>
        <mxCell id="3E4O9BEUz1lRJepPxAch-42" value="" style="line;strokeWidth=1;fillColor=none;align=left;verticalAlign=middle;spacingTop=-1;spacingLeft=3;spacingRight=3;rotatable=0;labelPosition=right;points=[];portConstraint=eastwest;strokeColor=inherit;fontSize=10;fontFamily=Georgia;" parent="3E4O9BEUz1lRJepPxAch-40" vertex="1">
          <mxGeometry y="50" width="170" height="8" as="geometry" />
        </mxCell>
        <mxCell id="3E4O9BEUz1lRJepPxAch-43" value="-&amp;nbsp;_compute_weight(float, float, float, float) : float&lt;br style=&quot;font-size: 10px;&quot;&gt;+ compute_scores(&lt;br&gt;InformationRessources, list(str), TextIndexer): dict[str, float]" style="text;strokeColor=none;fillColor=none;align=left;verticalAlign=top;spacingLeft=4;spacingRight=4;overflow=hidden;rotatable=0;points=[[0,0.5],[1,0.5]];portConstraint=eastwest;whiteSpace=wrap;html=1;fontSize=10;fontFamily=Georgia;" parent="3E4O9BEUz1lRJepPxAch-40" vertex="1">
          <mxGeometry y="58" width="170" height="72" as="geometry" />
        </mxCell>
        <mxCell id="3E4O9BEUz1lRJepPxAch-44" value="SMART_ltn" style="swimlane;fontStyle=1;align=center;verticalAlign=top;childLayout=stackLayout;horizontal=1;startSize=20;horizontalStack=0;resizeParent=1;resizeParentMax=0;resizeLast=0;collapsible=1;marginBottom=0;whiteSpace=wrap;html=1;fillColor=#f8cecc;strokeColor=#b85450;fontSize=10;fontFamily=Georgia;" parent="1" vertex="1">
          <mxGeometry x="1470" y="878" width="160" height="140" as="geometry" />
        </mxCell>
        <mxCell id="3E4O9BEUz1lRJepPxAch-45" value="- N : int" style="text;strokeColor=none;fillColor=none;align=left;verticalAlign=top;spacingLeft=4;spacingRight=4;overflow=hidden;rotatable=0;points=[[0,0.5],[1,0.5]];portConstraint=eastwest;whiteSpace=wrap;html=1;fontSize=10;fontFamily=Georgia;" parent="3E4O9BEUz1lRJepPxAch-44" vertex="1">
          <mxGeometry y="20" width="160" height="20" as="geometry" />
        </mxCell>
        <mxCell id="3E4O9BEUz1lRJepPxAch-46" value="" style="line;strokeWidth=1;fillColor=none;align=left;verticalAlign=middle;spacingTop=-1;spacingLeft=3;spacingRight=3;rotatable=0;labelPosition=right;points=[];portConstraint=eastwest;strokeColor=inherit;fontSize=10;fontFamily=Georgia;" parent="3E4O9BEUz1lRJepPxAch-44" vertex="1">
          <mxGeometry y="40" width="160" height="8" as="geometry" />
        </mxCell>
        <mxCell id="3E4O9BEUz1lRJepPxAch-47" value="- compute_idf(float, int) : float&lt;br style=&quot;font-size: 10px;&quot;&gt;-&amp;nbsp;compute_tf_part(float) : float&lt;br style=&quot;font-size: 10px;&quot;&gt;- compute weight(float, float) : float&lt;br style=&quot;font-size: 10px;&quot;&gt;+ compute_scores(&lt;br&gt;InformationRessources, list(str), TextIndexer): dict[str, float]" style="text;strokeColor=none;fillColor=none;align=left;verticalAlign=top;spacingLeft=4;spacingRight=4;overflow=hidden;rotatable=0;points=[[0,0.5],[1,0.5]];portConstraint=eastwest;whiteSpace=wrap;html=1;fontSize=10;fontFamily=Georgia;" parent="3E4O9BEUz1lRJepPxAch-44" vertex="1">
          <mxGeometry y="48" width="160" height="92" as="geometry" />
        </mxCell>
        <mxCell id="3E4O9BEUz1lRJepPxAch-49" value="" style="endArrow=classic;html=1;rounded=0;entryX=0.481;entryY=1.009;entryDx=0;entryDy=0;entryPerimeter=0;exitX=0.5;exitY=0;exitDx=0;exitDy=0;fontSize=10;fontFamily=Georgia;" parent="1" source="3E4O9BEUz1lRJepPxAch-21" target="3E4O9BEUz1lRJepPxAch-15" edge="1">
          <mxGeometry width="50" height="50" relative="1" as="geometry">
            <mxPoint x="1380" y="646" as="sourcePoint" />
            <mxPoint x="1460" y="577" as="targetPoint" />
            <Array as="points">
              <mxPoint x="1460" y="597" />
              <mxPoint x="1360" y="597" />
            </Array>
          </mxGeometry>
        </mxCell>
        <mxCell id="3E4O9BEUz1lRJepPxAch-50" value="" style="endArrow=classic;html=1;rounded=0;exitX=0.472;exitY=0.004;exitDx=0;exitDy=0;exitPerimeter=0;fontSize=10;fontFamily=Georgia;entryX=0.481;entryY=1.015;entryDx=0;entryDy=0;entryPerimeter=0;" parent="1" source="3E4O9BEUz1lRJepPxAch-40" target="3E4O9BEUz1lRJepPxAch-15" edge="1">
          <mxGeometry width="50" height="50" relative="1" as="geometry">
            <mxPoint x="1570" y="807" as="sourcePoint" />
            <mxPoint x="1390" y="567" as="targetPoint" />
            <Array as="points" />
          </mxGeometry>
        </mxCell>
        <mxCell id="3E4O9BEUz1lRJepPxAch-51" value="" style="endArrow=classic;html=1;rounded=0;fontSize=10;fontFamily=Georgia;exitX=0.563;exitY=0;exitDx=0;exitDy=0;exitPerimeter=0;entryX=0.479;entryY=1.026;entryDx=0;entryDy=0;entryPerimeter=0;" parent="1" source="3E4O9BEUz1lRJepPxAch-44" target="3E4O9BEUz1lRJepPxAch-15" edge="1">
          <mxGeometry width="50" height="50" relative="1" as="geometry">
            <mxPoint x="1560" y="777" as="sourcePoint" />
            <mxPoint x="1360" y="567" as="targetPoint" />
            <Array as="points">
              <mxPoint x="1560" y="597" />
              <mxPoint x="1360" y="597" />
            </Array>
          </mxGeometry>
        </mxCell>
        <mxCell id="-dPWKmdcAYBn_m6WJSQj-2" value="" style="endArrow=diamondThin;endFill=1;endSize=11;html=1;rounded=0;fontSize=10;fontFamily=Georgia;" edge="1" parent="1">
          <mxGeometry width="160" relative="1" as="geometry">
            <mxPoint x="260" y="797" as="sourcePoint" />
            <mxPoint x="300" y="797.6857142857143" as="targetPoint" />
            <Array as="points">
              <mxPoint x="260" y="797" />
            </Array>
          </mxGeometry>
        </mxCell>
        <mxCell id="-dPWKmdcAYBn_m6WJSQj-3" value="" style="endArrow=diamondThin;endFill=1;endSize=11;html=1;rounded=0;fontSize=10;fontFamily=Georgia;entryX=0;entryY=0.095;entryDx=0;entryDy=0;entryPerimeter=0;exitX=1;exitY=0.5;exitDx=0;exitDy=0;" edge="1" parent="1" source="e51l-U1AH-l_leqLZLDB-8" target="e51l-U1AH-l_leqLZLDB-31">
          <mxGeometry width="160" relative="1" as="geometry">
            <mxPoint x="120" y="339.62" as="sourcePoint" />
            <mxPoint x="160" y="340.3057142857143" as="targetPoint" />
            <Array as="points" />
          </mxGeometry>
        </mxCell>
        <mxCell id="-dPWKmdcAYBn_m6WJSQj-6" value="" style="endArrow=diamondThin;endFill=1;endSize=11;html=1;rounded=0;fontSize=10;fontFamily=Georgia;entryX=-0.001;entryY=0.813;entryDx=0;entryDy=0;entryPerimeter=0;exitX=1.001;exitY=0.422;exitDx=0;exitDy=0;exitPerimeter=0;" edge="1" parent="1" source="e51l-U1AH-l_leqLZLDB-31" target="e51l-U1AH-l_leqLZLDB-48">
          <mxGeometry width="160" relative="1" as="geometry">
            <mxPoint x="130" y="348" as="sourcePoint" />
            <mxPoint x="250" y="348" as="targetPoint" />
            <Array as="points" />
          </mxGeometry>
        </mxCell>
        <mxCell id="-dPWKmdcAYBn_m6WJSQj-7" value="" style="endArrow=diamondThin;endFill=1;endSize=11;html=1;rounded=0;fontSize=10;fontFamily=Georgia;entryX=1.005;entryY=0.366;entryDx=0;entryDy=0;entryPerimeter=0;exitX=0.002;exitY=0.006;exitDx=0;exitDy=0;exitPerimeter=0;" edge="1" parent="1" source="e51l-U1AH-l_leqLZLDB-58" target="e51l-U1AH-l_leqLZLDB-39">
          <mxGeometry width="160" relative="1" as="geometry">
            <mxPoint x="270" y="807" as="sourcePoint" />
            <mxPoint x="310" y="807.6857142857143" as="targetPoint" />
            <Array as="points">
              <mxPoint x="590" y="798" />
            </Array>
          </mxGeometry>
        </mxCell>
        <mxCell id="-dPWKmdcAYBn_m6WJSQj-8" value="" style="endArrow=diamondThin;endFill=1;endSize=11;html=1;rounded=0;fontSize=10;fontFamily=Georgia;entryX=0.5;entryY=0;entryDx=0;entryDy=0;" edge="1" parent="1" target="TDOq8ImsOCoTDgD2I6-n-14">
          <mxGeometry width="160" relative="1" as="geometry">
            <mxPoint x="490" y="378" as="sourcePoint" />
            <mxPoint x="567" y="388" as="targetPoint" />
            <Array as="points">
              <mxPoint x="520" y="378" />
              <mxPoint x="520" y="278" />
              <mxPoint x="920" y="278" />
            </Array>
          </mxGeometry>
        </mxCell>
        <mxCell id="-dPWKmdcAYBn_m6WJSQj-9" value="" style="endArrow=diamondThin;endFill=1;endSize=11;html=1;rounded=0;fontSize=10;fontFamily=Georgia;entryX=0.5;entryY=0;entryDx=0;entryDy=0;exitX=0.525;exitY=0.994;exitDx=0;exitDy=0;exitPerimeter=0;" edge="1" parent="1" source="TDOq8ImsOCoTDgD2I6-n-8" target="TDOq8ImsOCoTDgD2I6-n-14">
          <mxGeometry width="160" relative="1" as="geometry">
            <mxPoint x="1060" y="378" as="sourcePoint" />
            <mxPoint x="1010" y="520" as="targetPoint" />
            <Array as="points">
              <mxPoint x="920" y="278" />
            </Array>
          </mxGeometry>
        </mxCell>
        <mxCell id="-dPWKmdcAYBn_m6WJSQj-10" value="" style="endArrow=diamondThin;endFill=1;endSize=11;html=1;rounded=0;fontSize=10;fontFamily=Georgia;entryX=1;entryY=0.655;entryDx=0;entryDy=0;entryPerimeter=0;exitX=0.001;exitY=0.295;exitDx=0;exitDy=0;exitPerimeter=0;" edge="1" parent="1" source="TDOq8ImsOCoTDgD2I6-n-10" target="TDOq8ImsOCoTDgD2I6-n-6">
          <mxGeometry width="160" relative="1" as="geometry">
            <mxPoint x="1320" y="377" as="sourcePoint" />
            <mxPoint x="1290" y="378" as="targetPoint" />
            <Array as="points" />
          </mxGeometry>
        </mxCell>
        <mxCell id="-dPWKmdcAYBn_m6WJSQj-13" value="" style="endArrow=diamondThin;endFill=1;endSize=11;html=1;rounded=0;fontSize=10;fontFamily=Georgia;entryX=0.5;entryY=0;entryDx=0;entryDy=0;exitX=1.001;exitY=0.153;exitDx=0;exitDy=0;exitPerimeter=0;" edge="1" parent="1" source="e51l-U1AH-l_leqLZLDB-19" target="TDOq8ImsOCoTDgD2I6-n-1">
          <mxGeometry width="160" relative="1" as="geometry">
            <mxPoint x="1010" y="148" as="sourcePoint" />
            <mxPoint x="980" y="147" as="targetPoint" />
            <Array as="points">
              <mxPoint x="1360" y="58" />
            </Array>
          </mxGeometry>
        </mxCell>
        <mxCell id="-dPWKmdcAYBn_m6WJSQj-14" value="" style="endArrow=diamondThin;endFill=1;endSize=11;html=1;rounded=0;fontSize=10;fontFamily=Georgia;entryX=0;entryY=0.5;entryDx=0;entryDy=0;exitX=0.5;exitY=0;exitDx=0;exitDy=0;" edge="1" parent="1" source="3E4O9BEUz1lRJepPxAch-5" target="TDOq8ImsOCoTDgD2I6-n-4">
          <mxGeometry width="160" relative="1" as="geometry">
            <mxPoint x="1010" y="148" as="sourcePoint" />
            <mxPoint x="980" y="147" as="targetPoint" />
            <Array as="points">
              <mxPoint x="1120" y="273" />
            </Array>
          </mxGeometry>
        </mxCell>
      </root>
    </mxGraphModel>
  </diagram>
</mxfile>
